<svg width="85" height="60" viewBox="0 0 85 60" fill="none" xmlns="http://www.w3.org/2000/svg">
<path d="M83.207 37.3413C84.1032 36.1266 84.0846 34.204 83.7987 33.8449C86.2397 33.6089 84.3903 36.9682 83.207 37.3413Z" fill="white"/>
<path d="M51.9506 28.8846C51.6576 28.3127 50.7033 27.9896 50.844 27.0295C50.8509 27.0004 50.8149 26.9644 50.7917 26.9341C50.5906 26.6459 50.4046 26.6668 50.2023 26.9702C49.7095 27.7094 49.2027 28.4429 48.6936 29.1682C47.2987 31.1675 42.0843 37.771 40.2872 37.9895C39.9292 38.0325 39.7828 37.7617 39.756 37.463C39.6607 36.3401 40.7917 33.5016 42.5167 31.3256C40.8638 34.2676 40.5964 36.0553 40.944 36.4587C42.168 31.9684 46.2142 27.7315 49.5758 24.857C49.6456 24.7849 49.706 24.7279 49.7048 24.6663C49.6909 23.6992 48.2751 22.6368 46.6978 22.7019C46.9093 22.0208 46.3316 21.5512 45.8818 21.5709C45.4366 22.3962 43.0769 25.9752 41.789 27.3782C38.3821 31.1327 33.4617 34.9987 28.1985 37.2235C28.0939 37.277 29.1516 38.3069 31.3346 37.2921C31.2881 37.399 30.686 37.9326 30.1373 37.9988C30.4361 38.2685 31.6066 38.2976 32.5365 37.9977C34.6264 37.3212 37.866 33.934 38.8343 32.6623C38.2473 33.6527 35.7539 37.4932 35.2704 40.5142C35.0158 42.0927 35.2007 43.3993 36.1236 43.5341C36.3038 45.044 37.444 46.1343 38.2682 46.0309C38.4111 46.0111 38.5564 45.8995 38.6018 45.6775C39.4143 41.5325 45.0367 34.6047 45.5482 35.3056C43.7523 37.7199 42.1459 42.3752 42.9479 44.5802C43.428 45.9065 45.447 46.4145 48.0763 45.3695C45.9759 44.3687 46.4513 39.2542 47.2604 37.2549C46.6048 40.5073 47.0232 43.3958 47.8973 44.0699L47.9496 44.0374C46.6001 37.9349 49.6839 32.1951 51.9169 29.8227C52.1156 29.4856 52.1203 29.2229 51.9506 28.8846Z" fill="white"/>
<path d="M23.2915 51.8902C20.8749 52.3447 19.6649 47.7963 23.2264 46.2736C24.1656 45.8714 25.793 45.8621 25.8139 46.8408C21.4294 47.7882 21.491 51.5671 23.2915 51.8902Z" fill="white"/>
<path d="M31.1741 7.19043C14.9112 11.01 -1.89097 24.8761 6.89779 28.2911C4.3266 24.1496 11.2835 13.7788 31.1741 7.19043Z" fill="white"/>
<path d="M17.5388 57.5782C18.3664 57.4317 18.4222 56.6785 17.8713 56.2077C16.6984 55.2092 16.223 53.5098 16.7531 52.5137C16.0312 53.0635 15.2803 54.5467 15.7371 56.0159C16.0219 56.933 16.8019 57.7072 17.5388 57.5782Z" fill="white"/>
<path d="M37.2349 20.7048C35.6564 23.1237 29.3354 26.7504 23.0923 26.6167C24.0687 28.4486 26.3132 30.1422 30.5919 29.4087C39.5946 27.8686 50.4198 16.2855 49.6433 8.365C49.6108 8.365 49.5771 8.365 49.5434 8.365C49.3062 10.9676 47.6231 14.7023 46.0434 15.9925C46.985 14.8034 48.732 11.572 48.6925 8.19064C48.5925 -0.163385 37.5778 -2.48815 24.8288 2.89716C24.7765 2.91925 32.1193 0.851373 35.3414 1.26169C15.8402 4.30132 0.40724 18.6869 0.0108682 28.3266C-0.680748 45.2799 31.8705 36.7108 30.8093 47.1409C32.4401 42.0287 22.8609 39.0681 21.752 38.3277C21.8718 38.2754 21.9578 38.2765 22.0391 38.2917C24.7719 38.8391 31.4068 41.766 31.559 45.6193C31.8182 52.2112 22.6784 53.6944 20.8779 52.346C21.1441 53.3724 23.3096 54.6673 25.6588 54.0931C24.5952 54.6615 20.0898 54.6801 19.8701 51.2417C19.7376 49.1669 20.757 47.8255 20.757 47.8255C20.5559 47.8429 20.1131 48.4788 19.9724 48.7484C19.8771 48.9332 19.783 49.0762 19.5319 49.0634C19.4215 49.0565 19.2436 49.1448 19.1901 49.2494C17.335 52.8202 19.9457 57.0304 24.9927 56.6573C28.2893 56.4143 30.5059 54.8718 31.4102 53.8954C30.922 54.2291 30.0061 54.8033 29.2994 54.9044C29.2889 54.8765 29.2773 54.8486 29.268 54.8207C31.6369 53.441 33.5978 51.4033 33.9431 48.6531C35.768 34.035 5.09861 35.7658 3.65377 27.113C1.72189 15.5543 37.8533 -0.000651817 46.2957 7.37C45.3425 2.61238 32.7528 4.72559 32.7493 4.68955C38.9064 2.6426 47.2012 3.02619 47.3941 7.99304C47.5511 11.9684 39.7922 21.787 24.9602 25.0056C27.9522 25.9948 34.3534 23.2644 37.2349 20.7048Z" fill="white"/>
<path d="M82.7048 33.2696C82.0504 31.626 75.1191 32.2944 71.0287 34.0647C70.9403 33.8659 70.8473 33.6776 70.7462 33.5068C71.9121 30.5311 75.4457 25.0923 79.2316 21.3866C79.8825 20.7485 80.5428 20.1591 81.1995 19.6454C81.2762 18.5353 78.3342 17.0951 76.3931 18.676C74.0218 21.203 71.5855 26.128 70.5079 28.4609L70.2847 28.4702C70.7834 25.8571 73.4232 21.0949 75.0366 19.5384C72.9257 19.6117 68.4889 28.4318 66.1025 36.5417H66.0967C63.5801 37.6088 58.8899 40.4601 57.2858 42.1677C57.1963 42.2618 57.0801 41.9119 57.0731 41.7852C56.8 37.4786 61.8958 34.3565 65.9444 31.5051C66.4547 31.1436 66.106 30.0836 65.8909 29.8987C64.3671 32.1526 60.2011 34.5204 58.2936 37.1125C59.6792 34.4239 65.6864 30.588 65.5945 29.0932C65.4609 26.9335 62.7293 24.7029 61.5588 24.1089C61.7703 23.7404 62.3015 22.7164 62.1248 21.6261C61.9214 20.3765 60.6277 19.8279 59.5327 19.9336C59.7315 20.6648 59.5153 21.8051 59.3177 22.4084C57.1859 20.9658 53.8731 20.7462 53.8452 22.592C55.3203 21.5331 58.3715 22.3026 59.7175 23.222C53.7766 21.2878 52.2527 24.5111 53.0211 26.2186C53.0211 26.2186 55.4946 26.1442 57.48 26.8824C57.0336 28.1552 54.0742 34.0705 50.6882 37.7494C50.9288 37.6716 51.1578 37.6239 51.3635 37.5309C51.7738 37.3484 55.5272 32.2921 56.5675 30.7217C56.5884 30.8205 55.7317 32.6036 54.159 35.0365C55.9096 33.0139 58.7365 28.6015 59.4432 27.4694C59.4432 27.4694 61.5181 28.2865 61.6076 29.7395C61.761 32.2049 50.9916 38.133 51.152 42.6907C51.181 43.5265 51.6158 44.7481 52.4864 45.5409C52.1342 44.8307 51.9598 43.8996 52.0749 42.8581C52.2341 41.4109 52.9513 39.7499 54.524 38.1714C51.6239 41.7829 52.6491 45.0504 53.2675 45.9477C43.8104 46.5475 36.1433 49.9242 36.1073 55.1654C36.1305 55.2816 36.0329 55.4374 35.9585 55.5548C35.0053 57.0636 35.4226 58.9466 36.0724 59.1721C40.5325 53.774 48.1728 49.3628 54.8797 48.0981C54.8809 47.9726 54.3392 47.9912 53.4593 48.1318C50.2139 48.5921 46.1014 49.7673 42.7886 51.7666C42.7003 48.9827 54.7298 46.1651 62.3038 47.2426C62.4282 46.1395 60.086 45.7106 57.48 45.6664C58.7179 40.7298 66.4838 36.6371 69.4711 35.6142C66.5221 36.873 61.7854 39.808 59.6711 43.0011C61.668 41.2122 64.3229 39.2838 65.4481 38.7607C62.6793 50.2636 65.6131 54.9445 67.7078 54.8713C69.1665 54.8202 70.5161 53.3067 71.3576 49.844C70.6951 51.3993 69.8523 52.4454 69.0561 52.4756C67.0719 52.5431 66.8092 49.5953 66.8092 49.5953C68.0751 52.8313 71.7156 50.3136 72.1132 44.5389C72.1411 44.1379 72.1666 43.7287 72.1852 43.3045C72.2701 41.4272 72.1887 39.1059 71.8493 37.0741C74.6832 36.2035 79.2769 36.1407 80.5149 37.102C80.8217 35.3875 77.6705 34.9853 72.5653 36.1058C76.0211 34.9795 80.9101 34.5831 81.2297 36.2337C81.3936 37.0718 80.9136 38.3074 80.5439 38.7828C80.3684 39.0106 80.9554 38.8374 81.11 38.6387C81.9667 37.5402 83.372 34.9435 82.7048 33.2696ZM68.8306 48.5968C67.2556 48.6909 67.5206 42.5687 69.4083 37.6762C69.5838 37.5995 69.7838 37.5309 69.9988 37.4647C70.3243 41.2331 69.7198 45.2619 69.0921 47.0311C69.9918 46.9997 70.981 43.065 70.9229 39.328L71.11 39.3221C71.6192 45.2712 69.8233 48.5619 68.8306 48.5968Z" fill="white"/>
</svg>
